<svg xmlns="http://www.w3.org/2000/svg" width="432" height="628" viewBox="-20 -20 432 628">
<rect x="-20" y="-20" width="432" height="628" fill="#f7f8fb" />
<rect x="0" y="560" width="28" height="28" fill="#2e8b57" stroke="#ffffff" stroke-width="1" /><rect x="0" y="532" width="28" height="28" fill="#2e8b57" stroke="#ffffff" stroke-width="1" /><rect x="0" y="504" width="28" height="28" fill="#2e8b57" stroke="#ffffff" stroke-width="1" /><rect x="0" y="476" width="28" height="28" fill="#2e8b57" stroke="#ffffff" stroke-width="1" /><rect x="0" y="448" width="28" height="28" fill="#2e8b57" stroke="#ffffff" stroke-width="1" /><rect x="0" y="420" width="28" height="28" fill="#2e8b57" stroke="#ffffff" stroke-width="1" /><rect x="0" y="392" width="28" height="28" fill="#2e8b57" stroke="#ffffff" stroke-width="1" /><rect x="0" y="364" width="28" height="28" fill="#2e8b57" stroke="#ffffff" stroke-width="1" /><rect x="0" y="336" width="28" height="28" fill="#2e8b57" stroke="#ffffff" stroke-width="1" /><rect x="0" y="308" width="28" height="28" fill="#2e8b57" stroke="#ffffff" stroke-width="1" /><rect x="0" y="280" width="28" height="28" fill="#2e8b57" stroke="#ffffff" stroke-width="1" /><rect x="0" y="252" width="28" height="28" fill="#2e8b57" stroke="#ffffff" stroke-width="1" /><rect x="0" y="224" width="28" height="28" fill="#2e8b57" stroke="#ffffff" stroke-width="1" /><rect x="0" y="196" width="28" height="28" fill="#2e8b57" stroke="#ffffff" stroke-width="1" /><rect x="0" y="168" width="28" height="28" fill="#2e8b57" stroke="#ffffff" stroke-width="1" /><rect x="0" y="140" width="28" height="28" fill="#2e8b57" stroke="#ffffff" stroke-width="1" /><rect x="0" y="112" width="28" height="28" fill="#2e8b57" stroke="#ffffff" stroke-width="1" /><rect x="0" y="84" width="28" height="28" fill="#2e8b57" stroke="#ffffff" stroke-width="1" /><rect x="0" y="56" width="28" height="28" fill="#2e8b57" stroke="#ffffff" stroke-width="1" /><rect x="0" y="28" width="28" height="28" fill="#2e8b57" stroke="#ffffff" stroke-width="1" /><rect x="0" y="0" width="28" height="28" fill="#2e8b57" stroke="#ffffff" stroke-width="1" /><rect x="28" y="560" width="28" height="28" fill="#2e8b57" stroke="#ffffff" stroke-width="1" /><rect x="28" y="532" width="28" height="28" fill="#2e8b57" stroke="#ffffff" stroke-width="1" /><rect x="28" y="504" width="28" height="28" fill="#2e8b57" stroke="#ffffff" stroke-width="1" /><rect x="28" y="476" width="28" height="28" fill="#2e8b57" stroke="#ffffff" stroke-width="1" /><rect x="28" y="448" width="28" height="28" fill="#2e8b57" stroke="#ffffff" stroke-width="1" /><rect x="28" y="420" width="28" height="28" fill="#2e8b57" stroke="#ffffff" stroke-width="1" /><rect x="28" y="392" width="28" height="28" fill="#2e8b57" stroke="#ffffff" stroke-width="1" /><rect x="28" y="364" width="28" height="28" fill="#2e8b57" stroke="#ffffff" stroke-width="1" /><rect x="28" y="336" width="28" height="28" fill="#2e8b57" stroke="#ffffff" stroke-width="1" /><rect x="28" y="308" width="28" height="28" fill="#2e8b57" stroke="#ffffff" stroke-width="1" /><rect x="28" y="280" width="28" height="28" fill="#2e8b57" stroke="#ffffff" stroke-width="1" /><rect x="28" y="252" width="28" height="28" fill="#2e8b57" stroke="#ffffff" stroke-width="1" /><rect x="28" y="224" width="28" height="28" fill="#2e8b57" stroke="#ffffff" stroke-width="1" /><rect x="28" y="196" width="28" height="28" fill="#2e8b57" stroke="#ffffff" stroke-width="1" /><rect x="28" y="168" width="28" height="28" fill="#2e8b57" stroke="#ffffff" stroke-width="1" /><rect x="28" y="140" width="28" height="28" fill="#2e8b57" stroke="#ffffff" stroke-width="1" /><rect x="28" y="112" width="28" height="28" fill="#2e8b57" stroke="#ffffff" stroke-width="1" /><rect x="28" y="84" width="28" height="28" fill="#2e8b57" stroke="#ffffff" stroke-width="1" /><rect x="28" y="56" width="28" height="28" fill="#2e8b57" stroke="#ffffff" stroke-width="1" /><rect x="28" y="28" width="28" height="28" fill="#2e8b57" stroke="#ffffff" stroke-width="1" /><rect x="28" y="0" width="28" height="28" fill="#2e8b57" stroke="#ffffff" stroke-width="1" /><rect x="56" y="560" width="28" height="28" fill="#2e8b57" stroke="#ffffff" stroke-width="1" /><rect x="56" y="532" width="28" height="28" fill="#2e8b57" stroke="#ffffff" stroke-width="1" /><rect x="56" y="504" width="28" height="28" fill="#2e8b57" stroke="#ffffff" stroke-width="1" /><rect x="56" y="476" width="28" height="28" fill="#2e8b57" stroke="#ffffff" stroke-width="1" /><rect x="56" y="448" width="28" height="28" fill="#2e8b57" stroke="#ffffff" stroke-width="1" /><rect x="56" y="420" width="28" height="28" fill="#2e8b57" stroke="#ffffff" stroke-width="1" /><rect x="56" y="392" width="28" height="28" fill="#2e8b57" stroke="#ffffff" stroke-width="1" /><rect x="56" y="364" width="28" height="28" fill="#2e8b57" stroke="#ffffff" stroke-width="1" /><rect x="56" y="336" width="28" height="28" fill="#2e8b57" stroke="#ffffff" stroke-width="1" /><rect x="56" y="308" width="28" height="28" fill="#2e8b57" stroke="#ffffff" stroke-width="1" /><rect x="56" y="280" width="28" height="28" fill="#2e8b57" stroke="#ffffff" stroke-width="1" /><rect x="56" y="252" width="28" height="28" fill="#2e8b57" stroke="#ffffff" stroke-width="1" /><rect x="56" y="224" width="28" height="28" fill="#2e8b57" stroke="#ffffff" stroke-width="1" /><rect x="56" y="196" width="28" height="28" fill="#2e8b57" stroke="#ffffff" stroke-width="1" /><rect x="56" y="168" width="28" height="28" fill="#2e8b57" stroke="#ffffff" stroke-width="1" /><rect x="56" y="140" width="28" height="28" fill="#2e8b57" stroke="#ffffff" stroke-width="1" /><rect x="56" y="112" width="28" height="28" fill="#2e8b57" stroke="#ffffff" stroke-width="1" /><rect x="56" y="84" width="28" height="28" fill="#2e8b57" stroke="#ffffff" stroke-width="1" /><rect x="56" y="56" width="28" height="28" fill="#2e8b57" stroke="#ffffff" stroke-width="1" /><rect x="56" y="28" width="28" height="28" fill="#2e8b57" stroke="#ffffff" stroke-width="1" /><rect x="56" y="0" width="28" height="28" fill="#2e8b57" stroke="#ffffff" stroke-width="1" /><rect x="84" y="560" width="28" height="28" fill="#2e8b57" stroke="#ffffff" stroke-width="1" /><rect x="84" y="532" width="28" height="28" fill="#2e8b57" stroke="#ffffff" stroke-width="1" /><rect x="84" y="504" width="28" height="28" fill="#2e8b57" stroke="#ffffff" stroke-width="1" /><rect x="84" y="476" width="28" height="28" fill="#2e8b57" stroke="#ffffff" stroke-width="1" /><rect x="84" y="448" width="28" height="28" fill="#2e8b57" stroke="#ffffff" stroke-width="1" /><rect x="84" y="420" width="28" height="28" fill="#2e8b57" stroke="#ffffff" stroke-width="1" /><rect x="84" y="392" width="28" height="28" fill="#2e8b57" stroke="#ffffff" stroke-width="1" /><rect x="84" y="364" width="28" height="28" fill="#2e8b57" stroke="#ffffff" stroke-width="1" /><rect x="84" y="336" width="28" height="28" fill="#2e8b57" stroke="#ffffff" stroke-width="1" /><rect x="84" y="308" width="28" height="28" fill="#2e8b57" stroke="#ffffff" stroke-width="1" /><rect x="84" y="280" width="28" height="28" fill="#2e8b57" stroke="#ffffff" stroke-width="1" /><rect x="84" y="252" width="28" height="28" fill="#2e8b57" stroke="#ffffff" stroke-width="1" /><rect x="84" y="224" width="28" height="28" fill="#2e8b57" stroke="#ffffff" stroke-width="1" /><rect x="84" y="196" width="28" height="28" fill="#2e8b57" stroke="#ffffff" stroke-width="1" /><rect x="84" y="168" width="28" height="28" fill="#2e8b57" stroke="#ffffff" stroke-width="1" /><rect x="84" y="140" width="28" height="28" fill="#2e8b57" stroke="#ffffff" stroke-width="1" /><rect x="84" y="112" width="28" height="28" fill="#2e8b57" stroke="#ffffff" stroke-width="1" /><rect x="84" y="84" width="28" height="28" fill="#2e8b57" stroke="#ffffff" stroke-width="1" /><rect x="84" y="56" width="28" height="28" fill="#2e8b57" stroke="#ffffff" stroke-width="1" /><rect x="84" y="28" width="28" height="28" fill="#2e8b57" stroke="#ffffff" stroke-width="1" /><rect x="84" y="0" width="28" height="28" fill="#2e8b57" stroke="#ffffff" stroke-width="1" /><rect x="112" y="560" width="28" height="28" fill="#2e8b57" stroke="#ffffff" stroke-width="1" /><rect x="112" y="532" width="28" height="28" fill="#2e8b57" stroke="#ffffff" stroke-width="1" /><rect x="112" y="504" width="28" height="28" fill="#2e8b57" stroke="#ffffff" stroke-width="1" /><rect x="112" y="476" width="28" height="28" fill="#2e8b57" stroke="#ffffff" stroke-width="1" /><rect x="112" y="448" width="28" height="28" fill="#2e8b57" stroke="#ffffff" stroke-width="1" /><rect x="112" y="420" width="28" height="28" fill="#2e8b57" stroke="#ffffff" stroke-width="1" /><rect x="112" y="392" width="28" height="28" fill="#2e8b57" stroke="#ffffff" stroke-width="1" /><rect x="112" y="364" width="28" height="28" fill="#2e8b57" stroke="#ffffff" stroke-width="1" /><rect x="112" y="336" width="28" height="28" fill="#2e8b57" stroke="#ffffff" stroke-width="1" /><rect x="112" y="308" width="28" height="28" fill="#2e8b57" stroke="#ffffff" stroke-width="1" /><rect x="112" y="280" width="28" height="28" fill="#2e8b57" stroke="#ffffff" stroke-width="1" /><rect x="112" y="252" width="28" height="28" fill="#2e8b57" stroke="#ffffff" stroke-width="1" /><rect x="112" y="224" width="28" height="28" fill="#2e8b57" stroke="#ffffff" stroke-width="1" /><rect x="112" y="196" width="28" height="28" fill="#2e8b57" stroke="#ffffff" stroke-width="1" /><rect x="112" y="168" width="28" height="28" fill="#2e8b57" stroke="#ffffff" stroke-width="1" /><rect x="112" y="140" width="28" height="28" fill="#2e8b57" stroke="#ffffff" stroke-width="1" /><rect x="112" y="112" width="28" height="28" fill="#2e8b57" stroke="#ffffff" stroke-width="1" /><rect x="112" y="84" width="28" height="28" fill="#2e8b57" stroke="#ffffff" stroke-width="1" /><rect x="112" y="56" width="28" height="28" fill="#2e8b57" stroke="#ffffff" stroke-width="1" /><rect x="112" y="28" width="28" height="28" fill="#2e8b57" stroke="#ffffff" stroke-width="1" /><rect x="112" y="0" width="28" height="28" fill="#2e8b57" stroke="#ffffff" stroke-width="1" /><rect x="140" y="560" width="28" height="28" fill="#2e8b57" stroke="#ffffff" stroke-width="1" /><rect x="140" y="532" width="28" height="28" fill="#2e8b57" stroke="#ffffff" stroke-width="1" /><rect x="140" y="504" width="28" height="28" fill="#2e8b57" stroke="#ffffff" stroke-width="1" /><rect x="140" y="476" width="28" height="28" fill="#2e8b57" stroke="#ffffff" stroke-width="1" /><rect x="140" y="448" width="28" height="28" fill="#2e8b57" stroke="#ffffff" stroke-width="1" /><rect x="140" y="420" width="28" height="28" fill="#2e8b57" stroke="#ffffff" stroke-width="1" /><rect x="140" y="392" width="28" height="28" fill="#2e8b57" stroke="#ffffff" stroke-width="1" /><rect x="140" y="364" width="28" height="28" fill="#2e8b57" stroke="#ffffff" stroke-width="1" /><rect x="140" y="336" width="28" height="28" fill="#2e8b57" stroke="#ffffff" stroke-width="1" /><rect x="140" y="308" width="28" height="28" fill="#2e8b57" stroke="#ffffff" stroke-width="1" /><rect x="140" y="280" width="28" height="28" fill="#2e8b57" stroke="#ffffff" stroke-width="1" /><rect x="140" y="252" width="28" height="28" fill="#2e8b57" stroke="#ffffff" stroke-width="1" /><rect x="140" y="224" width="28" height="28" fill="#2e8b57" stroke="#ffffff" stroke-width="1" /><rect x="140" y="196" width="28" height="28" fill="#2e8b57" stroke="#ffffff" stroke-width="1" /><rect x="140" y="168" width="28" height="28" fill="#2e8b57" stroke="#ffffff" stroke-width="1" /><rect x="140" y="140" width="28" height="28" fill="#2e8b57" stroke="#ffffff" stroke-width="1" /><rect x="140" y="112" width="28" height="28" fill="#2e8b57" stroke="#ffffff" stroke-width="1" /><rect x="140" y="84" width="28" height="28" fill="#2e8b57" stroke="#ffffff" stroke-width="1" /><rect x="140" y="56" width="28" height="28" fill="#2e8b57" stroke="#ffffff" stroke-width="1" /><rect x="140" y="28" width="28" height="28" fill="#2e8b57" stroke="#ffffff" stroke-width="1" /><rect x="140" y="0" width="28" height="28" fill="#2e8b57" stroke="#ffffff" stroke-width="1" /><rect x="168" y="560" width="28" height="28" fill="#2e8b57" stroke="#ffffff" stroke-width="1" /><rect x="168" y="532" width="28" height="28" fill="#2e8b57" stroke="#ffffff" stroke-width="1" /><rect x="168" y="504" width="28" height="28" fill="#2e8b57" stroke="#ffffff" stroke-width="1" /><rect x="168" y="476" width="28" height="28" fill="#2e8b57" stroke="#ffffff" stroke-width="1" /><rect x="168" y="448" width="28" height="28" fill="#2e8b57" stroke="#ffffff" stroke-width="1" /><rect x="168" y="420" width="28" height="28" fill="#2e8b57" stroke="#ffffff" stroke-width="1" /><rect x="168" y="392" width="28" height="28" fill="#2e8b57" stroke="#ffffff" stroke-width="1" /><rect x="168" y="364" width="28" height="28" fill="#2e8b57" stroke="#ffffff" stroke-width="1" /><rect x="168" y="336" width="28" height="28" fill="#2e8b57" stroke="#ffffff" stroke-width="1" /><rect x="168" y="308" width="28" height="28" fill="#2e8b57" stroke="#ffffff" stroke-width="1" /><rect x="168" y="280" width="28" height="28" fill="#2e8b57" stroke="#ffffff" stroke-width="1" /><rect x="168" y="252" width="28" height="28" fill="#2e8b57" stroke="#ffffff" stroke-width="1" /><rect x="168" y="224" width="28" height="28" fill="#2e8b57" stroke="#ffffff" stroke-width="1" /><rect x="168" y="196" width="28" height="28" fill="#2e8b57" stroke="#ffffff" stroke-width="1" /><rect x="168" y="168" width="28" height="28" fill="#2e8b57" stroke="#ffffff" stroke-width="1" /><rect x="168" y="140" width="28" height="28" fill="#2e8b57" stroke="#ffffff" stroke-width="1" /><rect x="168" y="112" width="28" height="28" fill="#2e8b57" stroke="#ffffff" stroke-width="1" /><rect x="168" y="84" width="28" height="28" fill="#2e8b57" stroke="#ffffff" stroke-width="1" /><rect x="168" y="56" width="28" height="28" fill="#2e8b57" stroke="#ffffff" stroke-width="1" /><rect x="168" y="28" width="28" height="28" fill="#2e8b57" stroke="#ffffff" stroke-width="1" /><rect x="168" y="0" width="28" height="28" fill="#2e8b57" stroke="#ffffff" stroke-width="1" /><rect x="196" y="560" width="28" height="28" fill="#2e8b57" stroke="#ffffff" stroke-width="1" /><rect x="196" y="532" width="28" height="28" fill="#2e8b57" stroke="#ffffff" stroke-width="1" /><rect x="196" y="504" width="28" height="28" fill="#2e8b57" stroke="#ffffff" stroke-width="1" /><rect x="196" y="476" width="28" height="28" fill="#cf3b2e" stroke="#ffffff" stroke-width="1" /><rect x="196" y="448" width="28" height="28" fill="#cf3b2e" stroke="#ffffff" stroke-width="1" /><rect x="196" y="420" width="28" height="28" fill="#cf3b2e" stroke="#ffffff" stroke-width="1" /><rect x="196" y="392" width="28" height="28" fill="#cf3b2e" stroke="#ffffff" stroke-width="1" /><rect x="196" y="364" width="28" height="28" fill="#cf3b2e" stroke="#ffffff" stroke-width="1" /><rect x="196" y="336" width="28" height="28" fill="#cf3b2e" stroke="#ffffff" stroke-width="1" /><rect x="196" y="308" width="28" height="28" fill="#cf3b2e" stroke="#ffffff" stroke-width="1" /><rect x="196" y="280" width="28" height="28" fill="#2e8b57" stroke="#ffffff" stroke-width="1" /><rect x="196" y="252" width="28" height="28" fill="#cf3b2e" stroke="#ffffff" stroke-width="1" /><rect x="196" y="224" width="28" height="28" fill="#cf3b2e" stroke="#ffffff" stroke-width="1" /><rect x="196" y="196" width="28" height="28" fill="#cf3b2e" stroke="#ffffff" stroke-width="1" /><rect x="196" y="168" width="28" height="28" fill="#cf3b2e" stroke="#ffffff" stroke-width="1" /><rect x="196" y="140" width="28" height="28" fill="#cf3b2e" stroke="#ffffff" stroke-width="1" /><rect x="196" y="112" width="28" height="28" fill="#cf3b2e" stroke="#ffffff" stroke-width="1" /><rect x="196" y="84" width="28" height="28" fill="#cf3b2e" stroke="#ffffff" stroke-width="1" /><rect x="196" y="56" width="28" height="28" fill="#2e8b57" stroke="#ffffff" stroke-width="1" /><rect x="196" y="28" width="28" height="28" fill="#2e8b57" stroke="#ffffff" stroke-width="1" /><rect x="196" y="0" width="28" height="28" fill="#2e8b57" stroke="#ffffff" stroke-width="1" /><rect x="224" y="560" width="28" height="28" fill="#2e8b57" stroke="#ffffff" stroke-width="1" /><rect x="224" y="532" width="28" height="28" fill="#2e8b57" stroke="#ffffff" stroke-width="1" /><rect x="224" y="504" width="28" height="28" fill="#2e8b57" stroke="#ffffff" stroke-width="1" /><rect x="224" y="476" width="28" height="28" fill="#2e8b57" stroke="#ffffff" stroke-width="1" /><rect x="224" y="448" width="28" height="28" fill="#2e8b57" stroke="#ffffff" stroke-width="1" /><rect x="224" y="420" width="28" height="28" fill="#2e8b57" stroke="#ffffff" stroke-width="1" /><rect x="224" y="392" width="28" height="28" fill="#2e8b57" stroke="#ffffff" stroke-width="1" /><rect x="224" y="364" width="28" height="28" fill="#2e8b57" stroke="#ffffff" stroke-width="1" /><rect x="224" y="336" width="28" height="28" fill="#2e8b57" stroke="#ffffff" stroke-width="1" /><rect x="224" y="308" width="28" height="28" fill="#2e8b57" stroke="#ffffff" stroke-width="1" /><rect x="224" y="280" width="28" height="28" fill="#2e8b57" stroke="#ffffff" stroke-width="1" /><rect x="224" y="252" width="28" height="28" fill="#2e8b57" stroke="#ffffff" stroke-width="1" /><rect x="224" y="224" width="28" height="28" fill="#2e8b57" stroke="#ffffff" stroke-width="1" /><rect x="224" y="196" width="28" height="28" fill="#2e8b57" stroke="#ffffff" stroke-width="1" /><rect x="224" y="168" width="28" height="28" fill="#2e8b57" stroke="#ffffff" stroke-width="1" /><rect x="224" y="140" width="28" height="28" fill="#2e8b57" stroke="#ffffff" stroke-width="1" /><rect x="224" y="112" width="28" height="28" fill="#2e8b57" stroke="#ffffff" stroke-width="1" /><rect x="224" y="84" width="28" height="28" fill="#2e8b57" stroke="#ffffff" stroke-width="1" /><rect x="224" y="56" width="28" height="28" fill="#2e8b57" stroke="#ffffff" stroke-width="1" /><rect x="224" y="28" width="28" height="28" fill="#2e8b57" stroke="#ffffff" stroke-width="1" /><rect x="224" y="0" width="28" height="28" fill="#2e8b57" stroke="#ffffff" stroke-width="1" /><rect x="252" y="560" width="28" height="28" fill="#2e8b57" stroke="#ffffff" stroke-width="1" /><rect x="252" y="532" width="28" height="28" fill="#2e8b57" stroke="#ffffff" stroke-width="1" /><rect x="252" y="504" width="28" height="28" fill="#2e8b57" stroke="#ffffff" stroke-width="1" /><rect x="252" y="476" width="28" height="28" fill="#2e8b57" stroke="#ffffff" stroke-width="1" /><rect x="252" y="448" width="28" height="28" fill="#2e8b57" stroke="#ffffff" stroke-width="1" /><rect x="252" y="420" width="28" height="28" fill="#2e8b57" stroke="#ffffff" stroke-width="1" /><rect x="252" y="392" width="28" height="28" fill="#2e8b57" stroke="#ffffff" stroke-width="1" /><rect x="252" y="364" width="28" height="28" fill="#2e8b57" stroke="#ffffff" stroke-width="1" /><rect x="252" y="336" width="28" height="28" fill="#2e8b57" stroke="#ffffff" stroke-width="1" /><rect x="252" y="308" width="28" height="28" fill="#2e8b57" stroke="#ffffff" stroke-width="1" /><rect x="252" y="280" width="28" height="28" fill="#2e8b57" stroke="#ffffff" stroke-width="1" /><rect x="252" y="252" width="28" height="28" fill="#2e8b57" stroke="#ffffff" stroke-width="1" /><rect x="252" y="224" width="28" height="28" fill="#2e8b57" stroke="#ffffff" stroke-width="1" /><rect x="252" y="196" width="28" height="28" fill="#2e8b57" stroke="#ffffff" stroke-width="1" /><rect x="252" y="168" width="28" height="28" fill="#2e8b57" stroke="#ffffff" stroke-width="1" /><rect x="252" y="140" width="28" height="28" fill="#2e8b57" stroke="#ffffff" stroke-width="1" /><rect x="252" y="112" width="28" height="28" fill="#2e8b57" stroke="#ffffff" stroke-width="1" /><rect x="252" y="84" width="28" height="28" fill="#2e8b57" stroke="#ffffff" stroke-width="1" /><rect x="252" y="56" width="28" height="28" fill="#2e8b57" stroke="#ffffff" stroke-width="1" /><rect x="252" y="28" width="28" height="28" fill="#2e8b57" stroke="#ffffff" stroke-width="1" /><rect x="252" y="0" width="28" height="28" fill="#2e8b57" stroke="#ffffff" stroke-width="1" /><rect x="280" y="560" width="28" height="28" fill="#2e8b57" stroke="#ffffff" stroke-width="1" /><rect x="280" y="532" width="28" height="28" fill="#2e8b57" stroke="#ffffff" stroke-width="1" /><rect x="280" y="504" width="28" height="28" fill="#2e8b57" stroke="#ffffff" stroke-width="1" /><rect x="280" y="476" width="28" height="28" fill="#2e8b57" stroke="#ffffff" stroke-width="1" /><rect x="280" y="448" width="28" height="28" fill="#2e8b57" stroke="#ffffff" stroke-width="1" /><rect x="280" y="420" width="28" height="28" fill="#2e8b57" stroke="#ffffff" stroke-width="1" /><rect x="280" y="392" width="28" height="28" fill="#2e8b57" stroke="#ffffff" stroke-width="1" /><rect x="280" y="364" width="28" height="28" fill="#2e8b57" stroke="#ffffff" stroke-width="1" /><rect x="280" y="336" width="28" height="28" fill="#2e8b57" stroke="#ffffff" stroke-width="1" /><rect x="280" y="308" width="28" height="28" fill="#2e8b57" stroke="#ffffff" stroke-width="1" /><rect x="280" y="280" width="28" height="28" fill="#2e8b57" stroke="#ffffff" stroke-width="1" /><rect x="280" y="252" width="28" height="28" fill="#2e8b57" stroke="#ffffff" stroke-width="1" /><rect x="280" y="224" width="28" height="28" fill="#2e8b57" stroke="#ffffff" stroke-width="1" /><rect x="280" y="196" width="28" height="28" fill="#2e8b57" stroke="#ffffff" stroke-width="1" /><rect x="280" y="168" width="28" height="28" fill="#2e8b57" stroke="#ffffff" stroke-width="1" /><rect x="280" y="140" width="28" height="28" fill="#2e8b57" stroke="#ffffff" stroke-width="1" /><rect x="280" y="112" width="28" height="28" fill="#2e8b57" stroke="#ffffff" stroke-width="1" /><rect x="280" y="84" width="28" height="28" fill="#2e8b57" stroke="#ffffff" stroke-width="1" /><rect x="280" y="56" width="28" height="28" fill="#2e8b57" stroke="#ffffff" stroke-width="1" /><rect x="280" y="28" width="28" height="28" fill="#2e8b57" stroke="#ffffff" stroke-width="1" /><rect x="280" y="0" width="28" height="28" fill="#2e8b57" stroke="#ffffff" stroke-width="1" /><rect x="308" y="560" width="28" height="28" fill="#2e8b57" stroke="#ffffff" stroke-width="1" /><rect x="308" y="532" width="28" height="28" fill="#2e8b57" stroke="#ffffff" stroke-width="1" /><rect x="308" y="504" width="28" height="28" fill="#2e8b57" stroke="#ffffff" stroke-width="1" /><rect x="308" y="476" width="28" height="28" fill="#2e8b57" stroke="#ffffff" stroke-width="1" /><rect x="308" y="448" width="28" height="28" fill="#2e8b57" stroke="#ffffff" stroke-width="1" /><rect x="308" y="420" width="28" height="28" fill="#2e8b57" stroke="#ffffff" stroke-width="1" /><rect x="308" y="392" width="28" height="28" fill="#2e8b57" stroke="#ffffff" stroke-width="1" /><rect x="308" y="364" width="28" height="28" fill="#2e8b57" stroke="#ffffff" stroke-width="1" /><rect x="308" y="336" width="28" height="28" fill="#2e8b57" stroke="#ffffff" stroke-width="1" /><rect x="308" y="308" width="28" height="28" fill="#2e8b57" stroke="#ffffff" stroke-width="1" /><rect x="308" y="280" width="28" height="28" fill="#2e8b57" stroke="#ffffff" stroke-width="1" /><rect x="308" y="252" width="28" height="28" fill="#2e8b57" stroke="#ffffff" stroke-width="1" /><rect x="308" y="224" width="28" height="28" fill="#2e8b57" stroke="#ffffff" stroke-width="1" /><rect x="308" y="196" width="28" height="28" fill="#2e8b57" stroke="#ffffff" stroke-width="1" /><rect x="308" y="168" width="28" height="28" fill="#2e8b57" stroke="#ffffff" stroke-width="1" /><rect x="308" y="140" width="28" height="28" fill="#2e8b57" stroke="#ffffff" stroke-width="1" /><rect x="308" y="112" width="28" height="28" fill="#2e8b57" stroke="#ffffff" stroke-width="1" /><rect x="308" y="84" width="28" height="28" fill="#2e8b57" stroke="#ffffff" stroke-width="1" /><rect x="308" y="56" width="28" height="28" fill="#2e8b57" stroke="#ffffff" stroke-width="1" /><rect x="308" y="28" width="28" height="28" fill="#2e8b57" stroke="#ffffff" stroke-width="1" /><rect x="308" y="0" width="28" height="28" fill="#2e8b57" stroke="#ffffff" stroke-width="1" /><rect x="336" y="560" width="28" height="28" fill="#2e8b57" stroke="#ffffff" stroke-width="1" /><rect x="336" y="532" width="28" height="28" fill="#2e8b57" stroke="#ffffff" stroke-width="1" /><rect x="336" y="504" width="28" height="28" fill="#2e8b57" stroke="#ffffff" stroke-width="1" /><rect x="336" y="476" width="28" height="28" fill="#2e8b57" stroke="#ffffff" stroke-width="1" /><rect x="336" y="448" width="28" height="28" fill="#2e8b57" stroke="#ffffff" stroke-width="1" /><rect x="336" y="420" width="28" height="28" fill="#2e8b57" stroke="#ffffff" stroke-width="1" /><rect x="336" y="392" width="28" height="28" fill="#2e8b57" stroke="#ffffff" stroke-width="1" /><rect x="336" y="364" width="28" height="28" fill="#2e8b57" stroke="#ffffff" stroke-width="1" /><rect x="336" y="336" width="28" height="28" fill="#2e8b57" stroke="#ffffff" stroke-width="1" /><rect x="336" y="308" width="28" height="28" fill="#2e8b57" stroke="#ffffff" stroke-width="1" /><rect x="336" y="280" width="28" height="28" fill="#2e8b57" stroke="#ffffff" stroke-width="1" /><rect x="336" y="252" width="28" height="28" fill="#2e8b57" stroke="#ffffff" stroke-width="1" /><rect x="336" y="224" width="28" height="28" fill="#2e8b57" stroke="#ffffff" stroke-width="1" /><rect x="336" y="196" width="28" height="28" fill="#2e8b57" stroke="#ffffff" stroke-width="1" /><rect x="336" y="168" width="28" height="28" fill="#2e8b57" stroke="#ffffff" stroke-width="1" /><rect x="336" y="140" width="28" height="28" fill="#2e8b57" stroke="#ffffff" stroke-width="1" /><rect x="336" y="112" width="28" height="28" fill="#2e8b57" stroke="#ffffff" stroke-width="1" /><rect x="336" y="84" width="28" height="28" fill="#2e8b57" stroke="#ffffff" stroke-width="1" /><rect x="336" y="56" width="28" height="28" fill="#2e8b57" stroke="#ffffff" stroke-width="1" /><rect x="336" y="28" width="28" height="28" fill="#2e8b57" stroke="#ffffff" stroke-width="1" /><rect x="336" y="0" width="28" height="28" fill="#2e8b57" stroke="#ffffff" stroke-width="1" /><rect x="364" y="560" width="28" height="28" fill="#2e8b57" stroke="#ffffff" stroke-width="1" /><rect x="364" y="532" width="28" height="28" fill="#2e8b57" stroke="#ffffff" stroke-width="1" /><rect x="364" y="504" width="28" height="28" fill="#2e8b57" stroke="#ffffff" stroke-width="1" /><rect x="364" y="476" width="28" height="28" fill="#2e8b57" stroke="#ffffff" stroke-width="1" /><rect x="364" y="448" width="28" height="28" fill="#2e8b57" stroke="#ffffff" stroke-width="1" /><rect x="364" y="420" width="28" height="28" fill="#2e8b57" stroke="#ffffff" stroke-width="1" /><rect x="364" y="392" width="28" height="28" fill="#2e8b57" stroke="#ffffff" stroke-width="1" /><rect x="364" y="364" width="28" height="28" fill="#2e8b57" stroke="#ffffff" stroke-width="1" /><rect x="364" y="336" width="28" height="28" fill="#2e8b57" stroke="#ffffff" stroke-width="1" /><rect x="364" y="308" width="28" height="28" fill="#2e8b57" stroke="#ffffff" stroke-width="1" /><rect x="364" y="280" width="28" height="28" fill="#2e8b57" stroke="#ffffff" stroke-width="1" /><rect x="364" y="252" width="28" height="28" fill="#2e8b57" stroke="#ffffff" stroke-width="1" /><rect x="364" y="224" width="28" height="28" fill="#2e8b57" stroke="#ffffff" stroke-width="1" /><rect x="364" y="196" width="28" height="28" fill="#2e8b57" stroke="#ffffff" stroke-width="1" /><rect x="364" y="168" width="28" height="28" fill="#2e8b57" stroke="#ffffff" stroke-width="1" /><rect x="364" y="140" width="28" height="28" fill="#2e8b57" stroke="#ffffff" stroke-width="1" /><rect x="364" y="112" width="28" height="28" fill="#2e8b57" stroke="#ffffff" stroke-width="1" /><rect x="364" y="84" width="28" height="28" fill="#2e8b57" stroke="#ffffff" stroke-width="1" /><rect x="364" y="56" width="28" height="28" fill="#2e8b57" stroke="#ffffff" stroke-width="1" /><rect x="364" y="28" width="28" height="28" fill="#2e8b57" stroke="#ffffff" stroke-width="1" /><rect x="364" y="0" width="28" height="28" fill="#2e8b57" stroke="#ffffff" stroke-width="1" />
<polyline fill="none" stroke="#0a58ca" stroke-width="4" points="266,126 238,126 238,154 238,182 238,210 238,238 238,266 238,294 210,294 182,294 154,294 126,294 126,322 126,350 126,378 126,406 126,434 126,462" />
<circle cx="266" cy="126" r="7" fill="#1d4ed8" />
<circle cx="126" cy="462" r="7" fill="#111827" />
<text x="276" y="118" font-size="12" fill="#0f172a">Start</text>
<text x="136" y="454" font-size="12" fill="#0f172a">Goal</text>
</svg>